<?xml version="1.0" encoding="UTF-8" standalone="no"?>
<!DOCTYPE svg PUBLIC "-//W3C//DTD SVG 1.1//EN"
 "http://www.w3.org/Graphics/SVG/1.1/DTD/svg11.dtd">
<!-- Generated by graphviz version 2.40.1 (0)
 -->
<!-- Title: snakemake_dag Pages: 1 -->
<svg width="1265pt" height="548pt"
 viewBox="0.00 0.00 1265.00 548.00" xmlns="http://www.w3.org/2000/svg" xmlns:xlink="http://www.w3.org/1999/xlink">
<g id="graph0" class="graph" transform="scale(1 1) rotate(0) translate(4 544)">
<title>snakemake_dag</title>
<polygon fill="#ffffff" stroke="transparent" points="-4,4 -4,-544 1261,-544 1261,4 -4,4"/>
<!-- 0 -->
<g id="node1" class="node">
<title>0</title>
<path fill="none" stroke="#c6d856" stroke-width="2" d="M473,-36C473,-36 401,-36 401,-36 395,-36 389,-30 389,-24 389,-24 389,-12 389,-12 389,-6 395,0 401,0 401,0 473,0 473,0 479,0 485,-6 485,-12 485,-12 485,-24 485,-24 485,-30 479,-36 473,-36"/>
<text text-anchor="middle" x="437" y="-15.5" font-family="sans" font-size="10.00" fill="#000000">make_summary</text>
</g>
<!-- 1 -->
<g id="node2" class="node">
<title>1</title>
<path fill="none" stroke="#afd856" stroke-width="2" d="M56,-180C56,-180 12,-180 12,-180 6,-180 0,-174 0,-168 0,-168 0,-156 0,-156 0,-150 6,-144 12,-144 12,-144 56,-144 56,-144 62,-144 68,-150 68,-156 68,-156 68,-168 68,-168 68,-174 62,-180 56,-180"/>
<text text-anchor="middle" x="34" y="-159.5" font-family="sans" font-size="10.00" fill="#000000">make_dag</text>
</g>
<!-- 1&#45;&gt;0 -->
<g id="edge1" class="edge">
<title>1&#45;&gt;0</title>
<path fill="none" stroke="#c0c0c0" stroke-width="2" d="M21.5113,-143.8615C9.4525,-123.8961 -4.6034,-91.9875 13,-72 36.8098,-44.9655 268.4641,-27.8737 378.9437,-21.196"/>
<polygon fill="#c0c0c0" stroke="#c0c0c0" stroke-width="2" points="379.1524,-24.6898 388.9265,-20.601 378.7359,-17.7022 379.1524,-24.6898"/>
</g>
<!-- 2 -->
<g id="node3" class="node">
<title>2</title>
<path fill="none" stroke="#56d8a9" stroke-width="2" d="M111.5,-108C111.5,-108 34.5,-108 34.5,-108 28.5,-108 22.5,-102 22.5,-96 22.5,-96 22.5,-84 22.5,-84 22.5,-78 28.5,-72 34.5,-72 34.5,-72 111.5,-72 111.5,-72 117.5,-72 123.5,-78 123.5,-84 123.5,-84 123.5,-96 123.5,-96 123.5,-102 117.5,-108 111.5,-108"/>
<text text-anchor="middle" x="73" y="-87.5" font-family="sans" font-size="10.00" fill="#000000">save_pinned_env</text>
</g>
<!-- 1&#45;&gt;2 -->
<g id="edge17" class="edge">
<title>1&#45;&gt;2</title>
<path fill="none" stroke="#c0c0c0" stroke-width="2" d="M43.8413,-143.8314C48.1957,-135.7925 53.4098,-126.1666 58.2169,-117.2918"/>
<polygon fill="#c0c0c0" stroke="#c0c0c0" stroke-width="2" points="61.3408,-118.8732 63.0261,-108.4133 55.1857,-115.5392 61.3408,-118.8732"/>
</g>
<!-- 2&#45;&gt;0 -->
<g id="edge2" class="edge">
<title>2&#45;&gt;0</title>
<path fill="none" stroke="#c0c0c0" stroke-width="2" d="M123.6283,-75.4979C128.471,-74.2562 133.3195,-73.0684 138,-72 221.0091,-53.0524 318.2086,-36.5306 378.7037,-26.9082"/>
<polygon fill="#c0c0c0" stroke="#c0c0c0" stroke-width="2" points="379.4937,-30.3269 388.8245,-25.3084 378.4006,-23.4128 379.4937,-30.3269"/>
</g>
<!-- 3 -->
<g id="node4" class="node">
<title>3</title>
<path fill="none" stroke="#59d856" stroke-width="2" d="M357,-324C357,-324 271,-324 271,-324 265,-324 259,-318 259,-312 259,-312 259,-300 259,-300 259,-294 265,-288 271,-288 271,-288 357,-288 357,-288 363,-288 369,-294 369,-300 369,-300 369,-312 369,-312 369,-318 363,-324 357,-324"/>
<text text-anchor="middle" x="314" y="-303.5" font-family="sans" font-size="10.00" fill="#000000">get_mut_bind_expr</text>
</g>
<!-- 3&#45;&gt;0 -->
<g id="edge3" class="edge">
<title>3&#45;&gt;0</title>
<path fill="none" stroke="#c0c0c0" stroke-width="2" d="M258.9278,-290.8601C239.7027,-282.6406 220.158,-270.2855 209,-252 200.6658,-238.342 205.1954,-231.5411 209,-216 226.1588,-145.9094 229.5102,-119.3072 284,-72 310.6787,-48.8379 347.9423,-35.4096 379.0145,-27.7371"/>
<polygon fill="#c0c0c0" stroke="#c0c0c0" stroke-width="2" points="379.9186,-31.1203 388.8641,-25.4432 378.3308,-24.3027 379.9186,-31.1203"/>
</g>
<!-- 18 -->
<g id="node19" class="node">
<title>18</title>
<path fill="none" stroke="#56c9d8" stroke-width="2" d="M614,-252C614,-252 544,-252 544,-252 538,-252 532,-246 532,-240 532,-240 532,-228 532,-228 532,-222 538,-216 544,-216 544,-216 614,-216 614,-216 620,-216 626,-222 626,-228 626,-228 626,-240 626,-240 626,-246 620,-252 614,-252"/>
<text text-anchor="middle" x="579" y="-231.5" font-family="sans" font-size="10.00" fill="#000000">collapse_scores</text>
</g>
<!-- 3&#45;&gt;18 -->
<g id="edge49" class="edge">
<title>3&#45;&gt;18</title>
<path fill="none" stroke="#c0c0c0" stroke-width="2" d="M369.2301,-290.9941C414.0279,-278.8226 476.9396,-261.7296 522.1633,-249.4424"/>
<polygon fill="#c0c0c0" stroke="#c0c0c0" stroke-width="2" points="523.086,-252.8187 531.8184,-246.8191 521.2506,-246.0636 523.086,-252.8187"/>
</g>
<!-- 4 -->
<g id="node5" class="node">
<title>4</title>
<path fill="none" stroke="#70d856" stroke-width="2" d="M351.5,-252C351.5,-252 230.5,-252 230.5,-252 224.5,-252 218.5,-246 218.5,-240 218.5,-240 218.5,-228 218.5,-228 218.5,-222 224.5,-216 230.5,-216 230.5,-216 351.5,-216 351.5,-216 357.5,-216 363.5,-222 363.5,-228 363.5,-228 363.5,-240 363.5,-240 363.5,-246 357.5,-252 351.5,-252"/>
<text text-anchor="middle" x="291" y="-231.5" font-family="sans" font-size="10.00" fill="#000000">get_mut_antibody_escape</text>
</g>
<!-- 4&#45;&gt;0 -->
<g id="edge4" class="edge">
<title>4&#45;&gt;0</title>
<path fill="none" stroke="#c0c0c0" stroke-width="2" d="M286.6795,-215.8773C280.0938,-183.5481 271.3954,-115.2711 303,-72 320.787,-47.6471 351.4246,-34.258 378.9183,-26.9059"/>
<polygon fill="#c0c0c0" stroke="#c0c0c0" stroke-width="2" points="379.9986,-30.2447 388.8757,-24.4613 378.3296,-23.4466 379.9986,-30.2447"/>
</g>
<!-- 20 -->
<g id="node21" class="node">
<title>20</title>
<path fill="none" stroke="#8fd856" stroke-width="2" d="M425.5,-180C425.5,-180 358.5,-180 358.5,-180 352.5,-180 346.5,-174 346.5,-168 346.5,-168 346.5,-156 346.5,-156 346.5,-150 352.5,-144 358.5,-144 358.5,-144 425.5,-144 425.5,-144 431.5,-144 437.5,-150 437.5,-156 437.5,-156 437.5,-168 437.5,-168 437.5,-174 431.5,-180 425.5,-180"/>
<text text-anchor="middle" x="392" y="-159.5" font-family="sans" font-size="10.00" fill="#000000">epistatic_shifts</text>
</g>
<!-- 4&#45;&gt;20 -->
<g id="edge52" class="edge">
<title>4&#45;&gt;20</title>
<path fill="none" stroke="#c0c0c0" stroke-width="2" d="M316.4866,-215.8314C329.1659,-206.7927 344.6596,-195.7476 358.3055,-186.0198"/>
<polygon fill="#c0c0c0" stroke="#c0c0c0" stroke-width="2" points="360.4105,-188.8176 366.5216,-180.1628 356.3471,-183.1176 360.4105,-188.8176"/>
</g>
<!-- 5 -->
<g id="node6" class="node">
<title>5</title>
<path fill="none" stroke="#d85656" stroke-width="2" d="M464,-252C464,-252 394,-252 394,-252 388,-252 382,-246 382,-240 382,-240 382,-228 382,-228 382,-222 388,-216 394,-216 394,-216 464,-216 464,-216 470,-216 476,-222 476,-228 476,-228 476,-240 476,-240 476,-246 470,-252 464,-252"/>
<text text-anchor="middle" x="429" y="-231.5" font-family="sans" font-size="10.00" fill="#000000">get_SARSr_DMS</text>
</g>
<!-- 5&#45;&gt;0 -->
<g id="edge5" class="edge">
<title>5&#45;&gt;0</title>
<path fill="none" stroke="#c0c0c0" stroke-width="2" d="M382.3132,-215.8839C365.7685,-207.3134 348.4399,-195.4958 337,-180 308.14,-140.908 293.8117,-112.9299 320,-72 333.2931,-51.2241 356.8367,-38.3276 379.3362,-30.3771"/>
<polygon fill="#c0c0c0" stroke="#c0c0c0" stroke-width="2" points="380.46,-33.6921 388.882,-27.264 378.2896,-27.037 380.46,-33.6921"/>
</g>
<!-- 5&#45;&gt;20 -->
<g id="edge53" class="edge">
<title>5&#45;&gt;20</title>
<path fill="none" stroke="#c0c0c0" stroke-width="2" d="M419.6633,-215.8314C415.5757,-207.8771 410.6896,-198.369 406.1691,-189.5723"/>
<polygon fill="#c0c0c0" stroke="#c0c0c0" stroke-width="2" points="409.1461,-187.7078 401.4624,-180.4133 402.9201,-190.9074 409.1461,-187.7078"/>
</g>
<!-- 6 -->
<g id="node7" class="node">
<title>6</title>
<path fill="none" stroke="#56a9d8" stroke-width="2" d="M619,-468C619,-468 543,-468 543,-468 537,-468 531,-462 531,-456 531,-456 531,-444 531,-444 531,-438 537,-432 543,-432 543,-432 619,-432 619,-432 625,-432 631,-438 631,-444 631,-444 631,-456 631,-456 631,-462 625,-468 619,-468"/>
<text text-anchor="middle" x="581" y="-447.5" font-family="sans" font-size="10.00" fill="#000000">process_ccs_EG5</text>
</g>
<!-- 6&#45;&gt;0 -->
<g id="edge6" class="edge">
<title>6&#45;&gt;0</title>
<path fill="none" stroke="#c0c0c0" stroke-width="2" d="M530.9486,-443.9617C417.7832,-428.9155 152,-385.1522 152,-306 152,-306 152,-306 152,-162 152,-61.2874 295.5304,-30.9973 378.876,-21.8983"/>
<polygon fill="#c0c0c0" stroke="#c0c0c0" stroke-width="2" points="379.3833,-25.3647 388.9759,-20.8667 378.672,-18.401 379.3833,-25.3647"/>
</g>
<!-- 15 -->
<g id="node16" class="node">
<title>15</title>
<path fill="none" stroke="#56d892" stroke-width="2" d="M687.5,-396C687.5,-396 622.5,-396 622.5,-396 616.5,-396 610.5,-390 610.5,-384 610.5,-384 610.5,-372 610.5,-372 610.5,-366 616.5,-360 622.5,-360 622.5,-360 687.5,-360 687.5,-360 693.5,-360 699.5,-366 699.5,-372 699.5,-372 699.5,-384 699.5,-384 699.5,-390 693.5,-396 687.5,-396"/>
<text text-anchor="middle" x="655" y="-375.5" font-family="sans" font-size="10.00" fill="#000000">count_variants</text>
</g>
<!-- 6&#45;&gt;15 -->
<g id="edge36" class="edge">
<title>6&#45;&gt;15</title>
<path fill="none" stroke="#c0c0c0" stroke-width="2" d="M599.6733,-431.8314C608.5249,-423.219 619.2486,-412.7851 628.8895,-403.4048"/>
<polygon fill="#c0c0c0" stroke="#c0c0c0" stroke-width="2" points="631.6061,-405.645 636.3326,-396.1628 626.7246,-400.6279 631.6061,-405.645"/>
</g>
<!-- 16 -->
<g id="node17" class="node">
<title>16</title>
<path fill="none" stroke="#d87556" stroke-width="2" d="M530,-324C530,-324 478,-324 478,-324 472,-324 466,-318 466,-312 466,-312 466,-300 466,-300 466,-294 472,-288 478,-288 478,-288 530,-288 530,-288 536,-288 542,-294 542,-300 542,-300 542,-312 542,-312 542,-318 536,-324 530,-324"/>
<text text-anchor="middle" x="504" y="-303.5" font-family="sans" font-size="10.00" fill="#000000">fit_titrations</text>
</g>
<!-- 6&#45;&gt;16 -->
<g id="edge39" class="edge">
<title>6&#45;&gt;16</title>
<path fill="none" stroke="#c0c0c0" stroke-width="2" d="M571.2479,-431.7623C557.9409,-406.8764 533.9884,-362.0822 518.5533,-333.2165"/>
<polygon fill="#c0c0c0" stroke="#c0c0c0" stroke-width="2" points="521.4748,-331.2577 513.6729,-324.0896 515.3019,-334.5585 521.4748,-331.2577"/>
</g>
<!-- 17 -->
<g id="node18" class="node">
<title>17</title>
<path fill="none" stroke="#d88d56" stroke-width="2" d="M845.5,-324C845.5,-324 750.5,-324 750.5,-324 744.5,-324 738.5,-318 738.5,-312 738.5,-312 738.5,-300 738.5,-300 738.5,-294 744.5,-288 750.5,-288 750.5,-288 845.5,-288 845.5,-288 851.5,-288 857.5,-294 857.5,-300 857.5,-300 857.5,-312 857.5,-312 857.5,-318 851.5,-324 845.5,-324"/>
<text text-anchor="middle" x="798" y="-303.5" font-family="sans" font-size="10.00" fill="#000000">calculate_expression</text>
</g>
<!-- 6&#45;&gt;17 -->
<g id="edge43" class="edge">
<title>6&#45;&gt;17</title>
<path fill="none" stroke="#c0c0c0" stroke-width="2" d="M631.08,-434.1499C655.5107,-425.0998 684.5983,-412.2863 708,-396 726.0639,-383.4285 726.5191,-375.6425 742,-360 751.5205,-350.3801 762.1684,-340.0171 771.6023,-330.9668"/>
<polygon fill="#c0c0c0" stroke="#c0c0c0" stroke-width="2" points="774.0507,-333.4682 778.863,-324.0293 769.2149,-328.407 774.0507,-333.4682"/>
</g>
<!-- 7 -->
<g id="node8" class="node">
<title>7</title>
<path fill="none" stroke="#d8cb56" stroke-width="2" d="M497,-540C497,-540 355,-540 355,-540 349,-540 343,-534 343,-528 343,-528 343,-516 343,-516 343,-510 349,-504 355,-504 355,-504 497,-504 497,-504 503,-504 509,-510 509,-516 509,-516 509,-528 509,-528 509,-534 503,-540 497,-540"/>
<text text-anchor="middle" x="426" y="-525" font-family="sans" font-size="10.00" fill="#000000">get_ccs</text>
<text text-anchor="middle" x="426" y="-514" font-family="sans" font-size="10.00" fill="#000000">pacbioRun: pool1_EG5_240207</text>
</g>
<!-- 7&#45;&gt;6 -->
<g id="edge18" class="edge">
<title>7&#45;&gt;6</title>
<path fill="none" stroke="#c0c0c0" stroke-width="2" d="M465.113,-503.8314C485.7512,-494.2446 511.2484,-482.4008 533.0673,-472.2655"/>
<polygon fill="#c0c0c0" stroke="#c0c0c0" stroke-width="2" points="534.5734,-475.4251 542.1682,-468.038 531.6244,-469.0766 534.5734,-475.4251"/>
</g>
<!-- 13 -->
<g id="node14" class="node">
<title>13</title>
<path fill="none" stroke="#56d8c9" stroke-width="2" d="M737,-468C737,-468 661,-468 661,-468 655,-468 649,-462 649,-456 649,-456 649,-444 649,-444 649,-438 655,-432 661,-432 661,-432 737,-432 737,-432 743,-432 749,-438 749,-444 749,-444 749,-456 749,-456 749,-462 743,-468 737,-468"/>
<text text-anchor="middle" x="699" y="-447.5" font-family="sans" font-size="10.00" fill="#000000">process_ccs_FLip</text>
</g>
<!-- 7&#45;&gt;13 -->
<g id="edge24" class="edge">
<title>7&#45;&gt;13</title>
<path fill="none" stroke="#c0c0c0" stroke-width="2" d="M501.5065,-503.9032C540.1025,-494.4272 588.0143,-482.3202 638.9522,-468.2345"/>
<polygon fill="#c0c0c0" stroke="#c0c0c0" stroke-width="2" points="640.1397,-471.5371 648.8369,-465.4865 638.2648,-464.7929 640.1397,-471.5371"/>
</g>
<!-- 14 -->
<g id="node15" class="node">
<title>14</title>
<path fill="none" stroke="#5692d8" stroke-width="2" d="M867,-468C867,-468 779,-468 779,-468 773,-468 767,-462 767,-456 767,-456 767,-444 767,-444 767,-438 773,-432 779,-432 779,-432 867,-432 867,-432 873,-432 879,-438 879,-444 879,-444 879,-456 879,-456 879,-462 873,-468 867,-468"/>
<text text-anchor="middle" x="823" y="-447.5" font-family="sans" font-size="10.00" fill="#000000">process_ccs_BA286</text>
</g>
<!-- 7&#45;&gt;14 -->
<g id="edge30" class="edge">
<title>7&#45;&gt;14</title>
<path fill="none" stroke="#c0c0c0" stroke-width="2" d="M509.2142,-505.5474C512.1776,-505.0162 515.1132,-504.4987 518,-504 621.1721,-486.1782 650.7787,-490.173 756.9101,-468.1022"/>
<polygon fill="#c0c0c0" stroke="#c0c0c0" stroke-width="2" points="757.6699,-471.519 766.7328,-466.0313 756.2258,-464.6696 757.6699,-471.519"/>
</g>
<!-- 8 -->
<g id="node9" class="node">
<title>8</title>
<path fill="none" stroke="#d8cb56" stroke-width="2" d="M681,-540C681,-540 539,-540 539,-540 533,-540 527,-534 527,-528 527,-528 527,-516 527,-516 527,-510 533,-504 539,-504 539,-504 681,-504 681,-504 687,-504 693,-510 693,-516 693,-516 693,-528 693,-528 693,-534 687,-540 681,-540"/>
<text text-anchor="middle" x="610" y="-525" font-family="sans" font-size="10.00" fill="#000000">get_ccs</text>
<text text-anchor="middle" x="610" y="-514" font-family="sans" font-size="10.00" fill="#000000">pacbioRun: pool2_EG5_240207</text>
</g>
<!-- 8&#45;&gt;6 -->
<g id="edge19" class="edge">
<title>8&#45;&gt;6</title>
<path fill="none" stroke="#c0c0c0" stroke-width="2" d="M602.6821,-503.8314C599.5124,-495.9617 595.73,-486.5712 592.2187,-477.8533"/>
<polygon fill="#c0c0c0" stroke="#c0c0c0" stroke-width="2" points="595.3992,-476.3815 588.4165,-468.4133 588.9061,-478.9968 595.3992,-476.3815"/>
</g>
<!-- 8&#45;&gt;13 -->
<g id="edge25" class="edge">
<title>8&#45;&gt;13</title>
<path fill="none" stroke="#c0c0c0" stroke-width="2" d="M632.4585,-503.8314C643.4205,-494.9632 656.7699,-484.1637 668.6265,-474.5718"/>
<polygon fill="#c0c0c0" stroke="#c0c0c0" stroke-width="2" points="670.9755,-477.1734 676.5487,-468.1628 666.5729,-471.7313 670.9755,-477.1734"/>
</g>
<!-- 8&#45;&gt;14 -->
<g id="edge31" class="edge">
<title>8&#45;&gt;14</title>
<path fill="none" stroke="#c0c0c0" stroke-width="2" d="M663.474,-503.9243C692.7189,-494.0387 729.1259,-481.7321 759.7726,-471.3726"/>
<polygon fill="#c0c0c0" stroke="#c0c0c0" stroke-width="2" points="761.1514,-474.6012 769.504,-468.0831 758.9098,-467.9698 761.1514,-474.6012"/>
</g>
<!-- 9 -->
<g id="node10" class="node">
<title>9</title>
<path fill="none" stroke="#d8cb56" stroke-width="2" d="M865,-540C865,-540 723,-540 723,-540 717,-540 711,-534 711,-528 711,-528 711,-516 711,-516 711,-510 717,-504 723,-504 723,-504 865,-504 865,-504 871,-504 877,-510 877,-516 877,-516 877,-528 877,-528 877,-534 871,-540 865,-540"/>
<text text-anchor="middle" x="794" y="-525" font-family="sans" font-size="10.00" fill="#000000">get_ccs</text>
<text text-anchor="middle" x="794" y="-514" font-family="sans" font-size="10.00" fill="#000000">pacbioRun: pool1_FLip_240207</text>
</g>
<!-- 9&#45;&gt;6 -->
<g id="edge20" class="edge">
<title>9&#45;&gt;6</title>
<path fill="none" stroke="#c0c0c0" stroke-width="2" d="M740.526,-503.9243C710.1494,-493.6561 672.0457,-480.776 640.6962,-470.179"/>
<polygon fill="#c0c0c0" stroke="#c0c0c0" stroke-width="2" points="641.7941,-466.8556 631.1999,-466.969 639.5525,-473.487 641.7941,-466.8556"/>
</g>
<!-- 9&#45;&gt;13 -->
<g id="edge26" class="edge">
<title>9&#45;&gt;13</title>
<path fill="none" stroke="#c0c0c0" stroke-width="2" d="M770.0275,-503.8314C758.2139,-494.8779 743.8028,-483.9558 731.0565,-474.2955"/>
<polygon fill="#c0c0c0" stroke="#c0c0c0" stroke-width="2" points="733.0486,-471.4137 722.9648,-468.1628 728.8205,-476.9925 733.0486,-471.4137"/>
</g>
<!-- 9&#45;&gt;14 -->
<g id="edge32" class="edge">
<title>9&#45;&gt;14</title>
<path fill="none" stroke="#c0c0c0" stroke-width="2" d="M801.3179,-503.8314C804.4876,-495.9617 808.27,-486.5712 811.7813,-477.8533"/>
<polygon fill="#c0c0c0" stroke="#c0c0c0" stroke-width="2" points="815.0939,-478.9968 815.5835,-468.4133 808.6008,-476.3815 815.0939,-478.9968"/>
</g>
<!-- 10 -->
<g id="node11" class="node">
<title>10</title>
<path fill="none" stroke="#d8cb56" stroke-width="2" d="M1049,-540C1049,-540 907,-540 907,-540 901,-540 895,-534 895,-528 895,-528 895,-516 895,-516 895,-510 901,-504 907,-504 907,-504 1049,-504 1049,-504 1055,-504 1061,-510 1061,-516 1061,-516 1061,-528 1061,-528 1061,-534 1055,-540 1049,-540"/>
<text text-anchor="middle" x="978" y="-525" font-family="sans" font-size="10.00" fill="#000000">get_ccs</text>
<text text-anchor="middle" x="978" y="-514" font-family="sans" font-size="10.00" fill="#000000">pacbioRun: pool2_FLip_240207</text>
</g>
<!-- 10&#45;&gt;6 -->
<g id="edge21" class="edge">
<title>10&#45;&gt;6</title>
<path fill="none" stroke="#c0c0c0" stroke-width="2" d="M894.7881,-505.534C891.8241,-505.0066 888.8876,-504.4935 886,-504 780.2722,-485.9316 749.6004,-491.8139 641.1141,-468.0711"/>
<polygon fill="#c0c0c0" stroke="#c0c0c0" stroke-width="2" points="641.5959,-464.5929 631.0746,-465.839 640.0765,-471.426 641.5959,-464.5929"/>
</g>
<!-- 10&#45;&gt;13 -->
<g id="edge27" class="edge">
<title>10&#45;&gt;13</title>
<path fill="none" stroke="#c0c0c0" stroke-width="2" d="M900.094,-503.9892C860.3652,-494.5416 811.0961,-482.4253 758.9297,-468.1911"/>
<polygon fill="#c0c0c0" stroke="#c0c0c0" stroke-width="2" points="759.7267,-464.7805 749.157,-465.5088 757.8739,-471.5309 759.7267,-464.7805"/>
</g>
<!-- 10&#45;&gt;14 -->
<g id="edge33" class="edge">
<title>10&#45;&gt;14</title>
<path fill="none" stroke="#c0c0c0" stroke-width="2" d="M938.887,-503.8314C918.2488,-494.2446 892.7516,-482.4008 870.9327,-472.2655"/>
<polygon fill="#c0c0c0" stroke="#c0c0c0" stroke-width="2" points="872.3756,-469.0766 861.8318,-468.038 869.4266,-475.4251 872.3756,-469.0766"/>
</g>
<!-- 11 -->
<g id="node12" class="node">
<title>11</title>
<path fill="none" stroke="#d8cb56" stroke-width="2" d="M1245,-540C1245,-540 1091,-540 1091,-540 1085,-540 1079,-534 1079,-528 1079,-528 1079,-516 1079,-516 1079,-510 1085,-504 1091,-504 1091,-504 1245,-504 1245,-504 1251,-504 1257,-510 1257,-516 1257,-516 1257,-528 1257,-528 1257,-534 1251,-540 1245,-540"/>
<text text-anchor="middle" x="1168" y="-525" font-family="sans" font-size="10.00" fill="#000000">get_ccs</text>
<text text-anchor="middle" x="1168" y="-514" font-family="sans" font-size="10.00" fill="#000000">pacbioRun: pool1_BA286_240207</text>
</g>
<!-- 11&#45;&gt;6 -->
<g id="edge22" class="edge">
<title>11&#45;&gt;6</title>
<path fill="none" stroke="#c0c0c0" stroke-width="2" d="M1078.861,-505.2441C1075.8749,-504.8053 1072.9149,-504.3888 1070,-504 883.1522,-479.0801 830.138,-503.3275 641.0191,-467.9545"/>
<polygon fill="#c0c0c0" stroke="#c0c0c0" stroke-width="2" points="641.5075,-464.4847 631.0296,-466.0548 640.1997,-471.3615 641.5075,-464.4847"/>
</g>
<!-- 11&#45;&gt;13 -->
<g id="edge28" class="edge">
<title>11&#45;&gt;13</title>
<path fill="none" stroke="#c0c0c0" stroke-width="2" d="M1078.8442,-505.3635C1075.8628,-504.8905 1072.9085,-504.4344 1070,-504 935.1804,-483.8635 896.4533,-495.8874 759.1132,-468.0214"/>
<polygon fill="#c0c0c0" stroke="#c0c0c0" stroke-width="2" points="759.5526,-464.5384 749.0516,-465.9451 758.1379,-471.3939 759.5526,-464.5384"/>
</g>
<!-- 11&#45;&gt;14 -->
<g id="edge34" class="edge">
<title>11&#45;&gt;14</title>
<path fill="none" stroke="#c0c0c0" stroke-width="2" d="M1081.3872,-503.9243C1021.7272,-491.4735 943.6653,-475.1823 889.0192,-463.7779"/>
<polygon fill="#c0c0c0" stroke="#c0c0c0" stroke-width="2" points="889.6019,-460.3242 879.0977,-461.7074 888.1718,-467.1766 889.6019,-460.3242"/>
</g>
<!-- 12 -->
<g id="node13" class="node">
<title>12</title>
<path fill="none" stroke="#d8cb56" stroke-width="2" d="M313,-540C313,-540 159,-540 159,-540 153,-540 147,-534 147,-528 147,-528 147,-516 147,-516 147,-510 153,-504 159,-504 159,-504 313,-504 313,-504 319,-504 325,-510 325,-516 325,-516 325,-528 325,-528 325,-534 319,-540 313,-540"/>
<text text-anchor="middle" x="236" y="-525" font-family="sans" font-size="10.00" fill="#000000">get_ccs</text>
<text text-anchor="middle" x="236" y="-514" font-family="sans" font-size="10.00" fill="#000000">pacbioRun: pool2_BA286_240207</text>
</g>
<!-- 12&#45;&gt;6 -->
<g id="edge23" class="edge">
<title>12&#45;&gt;6</title>
<path fill="none" stroke="#c0c0c0" stroke-width="2" d="M322.6128,-503.9243C384.4337,-491.0225 466.0137,-473.9971 520.8246,-462.5583"/>
<polygon fill="#c0c0c0" stroke="#c0c0c0" stroke-width="2" points="521.6627,-465.9589 530.7367,-460.4897 520.2326,-459.1066 521.6627,-465.9589"/>
</g>
<!-- 12&#45;&gt;13 -->
<g id="edge29" class="edge">
<title>12&#45;&gt;13</title>
<path fill="none" stroke="#c0c0c0" stroke-width="2" d="M325.1571,-505.372C328.1381,-504.8966 331.092,-504.4377 334,-504 466.2392,-484.098 504.2064,-495.5256 639.0667,-467.9883"/>
<polygon fill="#c0c0c0" stroke="#c0c0c0" stroke-width="2" points="639.8669,-471.3969 648.9468,-465.9373 638.4441,-464.543 639.8669,-471.3969"/>
</g>
<!-- 12&#45;&gt;14 -->
<g id="edge35" class="edge">
<title>12&#45;&gt;14</title>
<path fill="none" stroke="#c0c0c0" stroke-width="2" d="M325.1396,-505.2486C328.1255,-504.8085 331.0853,-504.3905 334,-504 518.2444,-479.317 570.0839,-500.6249 756.9082,-468.0073"/>
<polygon fill="#c0c0c0" stroke="#c0c0c0" stroke-width="2" points="757.5421,-471.4496 766.7769,-466.2565 756.3192,-464.5572 757.5421,-471.4496"/>
</g>
<!-- 13&#45;&gt;0 -->
<g id="edge7" class="edge">
<title>13&#45;&gt;0</title>
<path fill="none" stroke="#c0c0c0" stroke-width="2" d="M733.735,-431.899C787.814,-402.5408 886,-344.0048 886,-306 886,-306 886,-306 886,-162 886,-104.7995 845.197,-97.5101 794,-72 742.7301,-46.4535 582.7088,-29.8605 495.3472,-22.4574"/>
<polygon fill="#c0c0c0" stroke="#c0c0c0" stroke-width="2" points="495.5796,-18.9647 485.3232,-21.6213 494.9976,-25.9405 495.5796,-18.9647"/>
</g>
<!-- 13&#45;&gt;15 -->
<g id="edge37" class="edge">
<title>13&#45;&gt;15</title>
<path fill="none" stroke="#c0c0c0" stroke-width="2" d="M687.8969,-431.8314C682.9326,-423.7079 676.9778,-413.9637 671.5072,-405.0118"/>
<polygon fill="#c0c0c0" stroke="#c0c0c0" stroke-width="2" points="674.4536,-403.121 666.2526,-396.4133 668.4806,-406.7712 674.4536,-403.121"/>
</g>
<!-- 13&#45;&gt;16 -->
<g id="edge40" class="edge">
<title>13&#45;&gt;16</title>
<path fill="none" stroke="#c0c0c0" stroke-width="2" d="M660.938,-431.7908C642.2291,-422.161 619.7359,-409.5406 601,-396 574.2075,-376.6368 546.8872,-350.6055 528.0978,-331.5203"/>
<polygon fill="#c0c0c0" stroke="#c0c0c0" stroke-width="2" points="530.5708,-329.0431 521.0874,-324.3191 525.555,-333.9259 530.5708,-329.0431"/>
</g>
<!-- 13&#45;&gt;17 -->
<g id="edge44" class="edge">
<title>13&#45;&gt;17</title>
<path fill="none" stroke="#c0c0c0" stroke-width="2" d="M714.2684,-431.9117C722.7408,-421.6116 733.2936,-408.3374 742,-396 756.4571,-375.5137 771.3881,-351.3403 782.1934,-333.2075"/>
<polygon fill="#c0c0c0" stroke="#c0c0c0" stroke-width="2" points="785.367,-334.7168 787.4435,-324.3274 779.3413,-331.1543 785.367,-334.7168"/>
</g>
<!-- 14&#45;&gt;0 -->
<g id="edge8" class="edge">
<title>14&#45;&gt;0</title>
<path fill="none" stroke="#c0c0c0" stroke-width="2" d="M846.9356,-431.9237C876.8027,-407.1078 924,-359.4385 924,-306 924,-306 924,-306 924,-162 924,-107.8872 889.9424,-97.0944 842,-72 783.0309,-41.1339 592.8822,-26.5029 495.5659,-20.8911"/>
<polygon fill="#c0c0c0" stroke="#c0c0c0" stroke-width="2" points="495.4897,-17.3814 485.3087,-20.3133 495.0959,-24.3703 495.4897,-17.3814"/>
</g>
<!-- 14&#45;&gt;15 -->
<g id="edge38" class="edge">
<title>14&#45;&gt;15</title>
<path fill="none" stroke="#c0c0c0" stroke-width="2" d="M780.6065,-431.8314C758.0376,-422.159 730.1079,-410.1891 706.3204,-399.9944"/>
<polygon fill="#c0c0c0" stroke="#c0c0c0" stroke-width="2" points="707.6588,-396.7602 697.0886,-396.038 704.9014,-403.1943 707.6588,-396.7602"/>
</g>
<!-- 14&#45;&gt;16 -->
<g id="edge41" class="edge">
<title>14&#45;&gt;16</title>
<path fill="none" stroke="#c0c0c0" stroke-width="2" d="M805.2057,-431.9027C783.9603,-411.3572 746.4493,-378.3236 708,-360 646.1517,-330.5252 621.6125,-343.5938 551.7547,-323.9426"/>
<polygon fill="#c0c0c0" stroke="#c0c0c0" stroke-width="2" points="552.6451,-320.5562 542.0638,-321.091 550.6691,-327.2716 552.6451,-320.5562"/>
</g>
<!-- 14&#45;&gt;17 -->
<g id="edge45" class="edge">
<title>14&#45;&gt;17</title>
<path fill="none" stroke="#c0c0c0" stroke-width="2" d="M823.5693,-431.8652C823.7778,-413.5416 823.0995,-384.5137 818,-360 816.156,-351.1359 813.1138,-341.7855 809.9518,-333.4021"/>
<polygon fill="#c0c0c0" stroke="#c0c0c0" stroke-width="2" points="813.1971,-332.0909 806.2496,-324.092 806.6925,-334.6776 813.1971,-332.0909"/>
</g>
<!-- 15&#45;&gt;0 -->
<g id="edge9" class="edge">
<title>15&#45;&gt;0</title>
<path fill="none" stroke="#c0c0c0" stroke-width="2" d="M670.3249,-359.6926C677.8061,-349.7513 686.2068,-336.8834 691,-324 730.0911,-218.9296 777.0396,-155.2884 702,-72 675.0211,-42.0555 565.0395,-27.9879 495.521,-21.9697"/>
<polygon fill="#c0c0c0" stroke="#c0c0c0" stroke-width="2" points="495.4077,-18.4482 485.1515,-21.1054 494.8262,-25.424 495.4077,-18.4482"/>
</g>
<!-- 15&#45;&gt;16 -->
<g id="edge42" class="edge">
<title>15&#45;&gt;16</title>
<path fill="none" stroke="#c0c0c0" stroke-width="2" d="M616.8963,-359.8314C596.8805,-350.2874 572.1733,-338.5065 550.9806,-328.4013"/>
<polygon fill="#c0c0c0" stroke="#c0c0c0" stroke-width="2" points="552.3625,-325.1828 541.8297,-324.038 549.3497,-331.5013 552.3625,-325.1828"/>
</g>
<!-- 15&#45;&gt;17 -->
<g id="edge46" class="edge">
<title>15&#45;&gt;17</title>
<path fill="none" stroke="#c0c0c0" stroke-width="2" d="M691.0849,-359.8314C709.7989,-350.4089 732.8432,-338.8062 752.74,-328.7883"/>
<polygon fill="#c0c0c0" stroke="#c0c0c0" stroke-width="2" points="754.5689,-331.7861 761.9266,-324.1628 751.4208,-325.5339 754.5689,-331.7861"/>
</g>
<!-- 16&#45;&gt;0 -->
<g id="edge10" class="edge">
<title>16&#45;&gt;0</title>
<path fill="none" stroke="#c0c0c0" stroke-width="2" d="M501.9397,-287.7725C497.1447,-247.9637 483.7982,-150.5269 460,-72 457.3235,-63.1684 453.6623,-53.8274 450.0481,-45.4427"/>
<polygon fill="#c0c0c0" stroke="#c0c0c0" stroke-width="2" points="453.1616,-43.8311 445.8887,-36.1269 446.7698,-46.6851 453.1616,-43.8311"/>
</g>
<!-- 16&#45;&gt;18 -->
<g id="edge47" class="edge">
<title>16&#45;&gt;18</title>
<path fill="none" stroke="#c0c0c0" stroke-width="2" d="M522.9257,-287.8314C531.9857,-279.1337 542.9809,-268.5783 552.8265,-259.1265"/>
<polygon fill="#c0c0c0" stroke="#c0c0c0" stroke-width="2" points="555.2904,-261.613 560.0804,-252.1628 550.4426,-256.5633 555.2904,-261.613"/>
</g>
<!-- 17&#45;&gt;0 -->
<g id="edge11" class="edge">
<title>17&#45;&gt;0</title>
<path fill="none" stroke="#c0c0c0" stroke-width="2" d="M802.1042,-287.7518C810.7874,-243.8952 825.7774,-131.7884 768,-72 731.2578,-33.979 580.0536,-22.7267 495.2883,-19.3978"/>
<polygon fill="#c0c0c0" stroke="#c0c0c0" stroke-width="2" points="495.4146,-15.9002 485.2926,-19.0298 495.157,-22.8954 495.4146,-15.9002"/>
</g>
<!-- 17&#45;&gt;18 -->
<g id="edge48" class="edge">
<title>17&#45;&gt;18</title>
<path fill="none" stroke="#c0c0c0" stroke-width="2" d="M743.0197,-287.9243C710.2689,-277.1569 668.7821,-263.5174 635.7274,-252.6501"/>
<polygon fill="#c0c0c0" stroke="#c0c0c0" stroke-width="2" points="636.7946,-249.3167 626.2017,-249.5184 634.6083,-255.9666 636.7946,-249.3167"/>
</g>
<!-- 18&#45;&gt;0 -->
<g id="edge12" class="edge">
<title>18&#45;&gt;0</title>
<path fill="none" stroke="#c0c0c0" stroke-width="2" d="M600.3728,-215.8473C634.8928,-184.3485 695.5361,-118.4886 659,-72 638.9582,-46.4988 553.9253,-31.542 495.1161,-24.0645"/>
<polygon fill="#c0c0c0" stroke="#c0c0c0" stroke-width="2" points="495.5436,-20.5907 485.1905,-22.8412 494.6873,-27.5382 495.5436,-20.5907"/>
</g>
<!-- 18&#45;&gt;20 -->
<g id="edge51" class="edge">
<title>18&#45;&gt;20</title>
<path fill="none" stroke="#c0c0c0" stroke-width="2" d="M531.812,-215.8314C506.0829,-205.925 474.0945,-193.6086 447.2109,-183.2577"/>
<polygon fill="#c0c0c0" stroke="#c0c0c0" stroke-width="2" points="448.1483,-179.8682 437.5585,-179.5412 445.6331,-186.4007 448.1483,-179.8682"/>
</g>
<!-- 21 -->
<g id="node22" class="node">
<title>21</title>
<path fill="none" stroke="#5673d8" stroke-width="2" d="M439.5,-108C439.5,-108 350.5,-108 350.5,-108 344.5,-108 338.5,-102 338.5,-96 338.5,-96 338.5,-84 338.5,-84 338.5,-78 344.5,-72 350.5,-72 350.5,-72 439.5,-72 439.5,-72 445.5,-72 451.5,-78 451.5,-84 451.5,-84 451.5,-96 451.5,-96 451.5,-102 445.5,-108 439.5,-108"/>
<text text-anchor="middle" x="395" y="-87.5" font-family="sans" font-size="10.00" fill="#000000">interactive_jsd_plot</text>
</g>
<!-- 18&#45;&gt;21 -->
<g id="edge54" class="edge">
<title>18&#45;&gt;21</title>
<path fill="none" stroke="#c0c0c0" stroke-width="2" d="M555.6963,-215.7623C522.7916,-190.0108 462.6482,-142.942 426.0036,-114.2637"/>
<polygon fill="#c0c0c0" stroke="#c0c0c0" stroke-width="2" points="428.1467,-111.4965 418.1145,-108.0896 423.8325,-117.009 428.1467,-111.4965"/>
</g>
<!-- 22 -->
<g id="node23" class="node">
<title>22</title>
<path fill="none" stroke="#56d873" stroke-width="2" d="M638,-108C638,-108 520,-108 520,-108 514,-108 508,-102 508,-96 508,-96 508,-84 508,-84 508,-78 514,-72 520,-72 520,-72 638,-72 638,-72 644,-72 650,-78 650,-84 650,-84 650,-96 650,-96 650,-102 644,-108 638,-108"/>
<text text-anchor="middle" x="579" y="-87.5" font-family="sans" font-size="10.00" fill="#000000">interactive_heatmap_plot</text>
</g>
<!-- 18&#45;&gt;22 -->
<g id="edge56" class="edge">
<title>18&#45;&gt;22</title>
<path fill="none" stroke="#c0c0c0" stroke-width="2" d="M579,-215.7623C579,-191.201 579,-147.2474 579,-118.3541"/>
<polygon fill="#c0c0c0" stroke="#c0c0c0" stroke-width="2" points="582.5001,-118.0896 579,-108.0896 575.5001,-118.0897 582.5001,-118.0896"/>
</g>
<!-- 19 -->
<g id="node20" class="node">
<title>19</title>
<path fill="none" stroke="#d8ac56" stroke-width="2" d="M670,-324C670,-324 572,-324 572,-324 566,-324 560,-318 560,-312 560,-312 560,-300 560,-300 560,-294 566,-288 572,-288 572,-288 670,-288 670,-288 676,-288 682,-294 682,-300 682,-300 682,-312 682,-312 682,-318 676,-324 670,-324"/>
<text text-anchor="middle" x="621" y="-303.5" font-family="sans" font-size="10.00" fill="#000000">gisaid_rbd_mutations</text>
</g>
<!-- 19&#45;&gt;0 -->
<g id="edge16" class="edge">
<title>19&#45;&gt;0</title>
<path fill="none" stroke="#c0c0c0" stroke-width="2" d="M634.7111,-287.9635C665.1942,-245.5251 731.8737,-137.9723 679,-72 656.3847,-43.7821 559.2188,-29.3437 495.0978,-22.752"/>
<polygon fill="#c0c0c0" stroke="#c0c0c0" stroke-width="2" points="495.4037,-19.2653 485.1069,-21.7606 494.7124,-26.2311 495.4037,-19.2653"/>
</g>
<!-- 19&#45;&gt;18 -->
<g id="edge50" class="edge">
<title>19&#45;&gt;18</title>
<path fill="none" stroke="#c0c0c0" stroke-width="2" d="M610.4016,-287.8314C605.7123,-279.7925 600.0972,-270.1666 594.9202,-261.2918"/>
<polygon fill="#c0c0c0" stroke="#c0c0c0" stroke-width="2" points="597.8031,-259.2875 589.7411,-252.4133 591.7566,-262.8146 597.8031,-259.2875"/>
</g>
<!-- 20&#45;&gt;0 -->
<g id="edge13" class="edge">
<title>20&#45;&gt;0</title>
<path fill="none" stroke="#c0c0c0" stroke-width="2" d="M361.0239,-143.8776C348.6431,-134.8263 335.7418,-122.6581 329,-108 322.3143,-93.4638 320.5883,-85.6104 329,-72 340.318,-53.6871 359.9353,-41.3768 379.372,-33.2003"/>
<polygon fill="#c0c0c0" stroke="#c0c0c0" stroke-width="2" points="380.8102,-36.3964 388.862,-29.5102 378.2733,-29.8722 380.8102,-36.3964"/>
</g>
<!-- 20&#45;&gt;21 -->
<g id="edge55" class="edge">
<title>20&#45;&gt;21</title>
<path fill="none" stroke="#c0c0c0" stroke-width="2" d="M392.757,-143.8314C393.0779,-136.131 393.4594,-126.9743 393.816,-118.4166"/>
<polygon fill="#c0c0c0" stroke="#c0c0c0" stroke-width="2" points="397.3133,-118.5503 394.2328,-108.4133 390.3194,-118.2589 397.3133,-118.5503"/>
</g>
<!-- 21&#45;&gt;0 -->
<g id="edge14" class="edge">
<title>21&#45;&gt;0</title>
<path fill="none" stroke="#c0c0c0" stroke-width="2" d="M405.5984,-71.8314C410.2877,-63.7925 415.9028,-54.1666 421.0798,-45.2918"/>
<polygon fill="#c0c0c0" stroke="#c0c0c0" stroke-width="2" points="424.2434,-46.8146 426.2589,-36.4133 418.1969,-43.2875 424.2434,-46.8146"/>
</g>
<!-- 22&#45;&gt;0 -->
<g id="edge15" class="edge">
<title>22&#45;&gt;0</title>
<path fill="none" stroke="#c0c0c0" stroke-width="2" d="M543.1674,-71.8314C524.5843,-62.4089 501.7011,-50.8062 481.9435,-40.7883"/>
<polygon fill="#c0c0c0" stroke="#c0c0c0" stroke-width="2" points="483.323,-37.5635 472.8211,-36.1628 480.1573,-43.8069 483.323,-37.5635"/>
</g>
</g>
</svg>
